<svg aria-hidden="true" style="position: absolute; width: 0; height: 0; overflow: hidden;" version="1.1" xmlns="http://www.w3.org/2000/svg" xmlns:xlink="http://www.w3.org/1999/xlink">
  <defs>
    <symbol id="company" viewBox="0 0 20 20">
      <g><path d="M10.858 1.558L1.7.167A1.477 1.477 0 00.517.492 1.49 1.49 0 000 1.608v17.559c0 .458.375.833.833.833h2.709v-4.375c0-.808.65-1.458 1.458-1.458h2.083c.809 0 1.459.65 1.459 1.458V20h3.541V3a1.46 1.46 0 00-1.225-1.442zM4.583 12.292h-1.25a.625.625 0 010-1.25h1.25a.625.625 0 010 1.25zm0-2.5h-1.25a.625.625 0 010-1.25h1.25a.625.625 0 010 1.25zm0-2.5h-1.25a.625.625 0 010-1.25h1.25a.625.625 0 010 1.25zm0-2.5h-1.25a.625.625 0 010-1.25h1.25a.625.625 0 010 1.25zm4.167 7.5H7.5a.625.625 0 010-1.25h1.25a.625.625 0 010 1.25zm0-2.5H7.5a.625.625 0 010-1.25h1.25a.625.625 0 010 1.25zm0-2.5H7.5a.625.625 0 010-1.25h1.25a.625.625 0 010 1.25zm0-2.5H7.5a.625.625 0 010-1.25h1.25a.625.625 0 010 1.25zM18.85 9.035l-5.933-1.242V20h5.625A1.46 1.46 0 0020 18.542V10.46c0-.688-.47-1.274-1.15-1.425zM16.875 17.5h-1.25a.625.625 0 010-1.25h1.25a.625.625 0 010 1.25zm0-2.5h-1.25a.625.625 0 010-1.25h1.25a.625.625 0 010 1.25zm0-2.5h-1.25a.625.625 0 010-1.25h1.25a.625.625 0 010 1.25z"/></g>
    </symbol>
    <symbol id="location" viewBox="0 0 20 14">
      <path d="M12.797 3.425C11.584 1.33 9.427.05 7.03.002a7.483 7.483 0 00-.308 0C4.325.05 2.17 1.33.955 3.425a6.963 6.963 0 00-.09 6.88l4.959 9.077.007.012c.218.38.609.606 1.045.606.437 0 .828-.226 1.046-.606l.007-.012 4.96-9.077a6.963 6.963 0 00-.092-6.88zm-5.92 5.638c-1.552 0-2.813-1.262-2.813-2.813s1.261-2.812 2.812-2.812S9.69 4.699 9.69 6.25 8.427 9.063 6.876 9.063z"/>
    </symbol>
    <symbol id="moon" viewBox="0 0 20 20">
      <path d="M19.513 11.397a.701.701 0 00-.588.128 7.496 7.496 0 01-2.276 1.336 7.101 7.101 0 01-2.583.462 7.505 7.505 0 01-5.32-2.209 7.568 7.568 0 01-2.199-5.342c0-.873.154-1.72.41-2.49a6.904 6.904 0 011.227-2.21.657.657 0 00-.102-.924.701.701 0 00-.589-.128C5.32.61 3.427 1.92 2.072 3.666A10.158 10.158 0 000 9.83c0 2.8 1.125 5.342 2.967 7.19a10.025 10.025 0 007.16 2.98c2.353 0 4.527-.822 6.266-2.183a10.13 10.13 0 003.58-5.624.623.623 0 00-.46-.796z" fill-rule="nonzero"/>
    </symbol>
    <symbol id="search" viewBox="0 0 24 25">
      <path d="M10.609 0c5.85 0 10.608 4.746 10.608 10.58 0 2.609-.952 5-2.527 6.847l5.112 5.087a.87.87 0 01-1.227 1.233l-5.118-5.093a10.58 10.58 0 01-6.848 2.505C4.759 21.16 0 16.413 0 10.58 0 4.747 4.76 0 10.609 0zm0 1.74c-4.891 0-8.87 3.965-8.87 8.84 0 4.874 3.979 8.84 8.87 8.84a8.855 8.855 0 006.213-2.537l.04-.047a.881.881 0 01.058-.053 8.786 8.786 0 002.558-6.203c0-4.875-3.979-8.84-8.87-8.84z"/>
    </symbol>
    <symbol id="sun" viewBox="0 0 20 20">
      <g fill-rule="nonzero"><path d="M13.545 6.455c-.9-.9-2.17-1.481-3.545-1.481a4.934 4.934 0 00-3.545 1.481c-.9.9-1.481 2.17-1.481 3.545 0 1.376.582 2.646 1.481 3.545.9.9 2.17 1.481 3.545 1.481a4.934 4.934 0 003.545-1.481c.9-.9 1.481-2.17 1.481-3.545a4.934 4.934 0 00-1.481-3.545zM10 3.413a.7.7 0 00.688-.688V.688A.7.7 0 0010 0a.7.7 0 00-.688.688v2.037a.7.7 0 00.688.688zM15.635 5.344l1.455-1.455a.67.67 0 000-.952.67.67 0 00-.952 0l-1.455 1.455a.67.67 0 000 .952c.238.264.66.264.952 0zM19.312 9.312h-2.037a.7.7 0 00-.688.688.7.7 0 00.688.688h2.037A.7.7 0 0020 10a.7.7 0 00-.688-.688zM15.608 14.656a.67.67 0 00-.952 0 .67.67 0 000 .952l1.455 1.455a.67.67 0 00.952 0 .67.67 0 000-.952l-1.455-1.455zM10 16.587a.7.7 0 00-.688.688v2.037A.7.7 0 0010 20a.7.7 0 00.688-.688v-2.037a.7.7 0 00-.688-.688zM4.365 14.656L2.91 16.111a.67.67 0 000 .952.67.67 0 00.952 0l1.455-1.455a.67.67 0 000-.952c-.238-.264-.66-.264-.952 0zM3.413 10a.7.7 0 00-.688-.688H.688A.7.7 0 000 10a.7.7 0 00.688.688h2.037A.7.7 0 003.413 10zM4.365 5.344a.67.67 0 00.952 0 .67.67 0 000-.952L3.862 2.937a.67.67 0 00-.952 0 .67.67 0 000 .952l1.455 1.455z"/></g>
    </symbol>
  </defs>
</svg>